<?xml version="1.0" encoding="UTF-8"?>
<!--Generator: Apple Native CoreSVG 341-->
<!DOCTYPE svg
PUBLIC "-//W3C//DTD SVG 1.1//EN"
       "http://www.w3.org/Graphics/SVG/1.1/DTD/svg11.dtd">
<svg version="1.1" xmlns="http://www.w3.org/2000/svg" xmlns:xlink="http://www.w3.org/1999/xlink" viewBox="0 0 3300 2200">
 <!--glyph: "", point size: 100.0, font version: "21.0d6e2", template writer version: "138.0.0"-->
 <style>.defaults {-sfsymbols-variable-value-mode:color;-sfsymbols-draw-reverses-motion-groups:true}

.monochrome-0 {-sfsymbols-variable-threshold:0.0;-sfsymbols-motion-group:2;-sfsymbols-layer-tags:-199b6ffcc4647535 -199b6ffcc4647536}
.monochrome-1 {-sfsymbols-variable-threshold:0.34;-sfsymbols-motion-group:1;-sfsymbols-layer-tags:-199b6ffcc4647536}
.monochrome-2 {-sfsymbols-variable-threshold:0.68;-sfsymbols-motion-group:0;-sfsymbols-layer-tags:-199b6ffcc4647536}

.multicolor-0:tintColor {-sfsymbols-variable-threshold:0.0;-sfsymbols-motion-group:2;-sfsymbols-layer-tags:-199b6ffcc4647535 -199b6ffcc4647536}
.multicolor-1:systemRedColor {-sfsymbols-variable-threshold:0.34;-sfsymbols-motion-group:1;-sfsymbols-layer-tags:-199b6ffcc4647536}
.multicolor-2:systemGreenColor {-sfsymbols-variable-threshold:0.68;-sfsymbols-motion-group:0;-sfsymbols-layer-tags:-199b6ffcc4647536}

.hierarchical-0:primary {-sfsymbols-variable-threshold:0.0;-sfsymbols-motion-group:2;-sfsymbols-layer-tags:-199b6ffcc4647535 -199b6ffcc4647536}
.hierarchical-1:secondary {-sfsymbols-variable-threshold:0.34;-sfsymbols-motion-group:1;-sfsymbols-layer-tags:-199b6ffcc4647536}
.hierarchical-2:primary {-sfsymbols-variable-threshold:0.68;-sfsymbols-motion-group:0;-sfsymbols-layer-tags:-199b6ffcc4647536}

.SFSymbolsPreviewWireframe {fill:none;opacity:1.0;stroke:black;stroke-width:0.5}
</style>
 <g id="Notes">
  <rect height="2200" id="artboard" style="fill:white;opacity:1" width="3300" x="0" y="0"/>
  <line style="fill:none;stroke:black;opacity:1;stroke-width:0.5;" x1="263" x2="3036" y1="292" y2="292"/>
  <text style="stroke:none;fill:black;font-family:sans-serif;font-size:13;font-weight:bold;" transform="matrix(1 0 0 1 263 322)">Weight/Scale Variations</text>
  <text style="stroke:none;fill:black;font-family:sans-serif;font-size:13;text-anchor:middle;" transform="matrix(1 0 0 1 559.711 322)">Ultralight</text>
  <text style="stroke:none;fill:black;font-family:sans-serif;font-size:13;text-anchor:middle;" transform="matrix(1 0 0 1 856.422 322)">Thin</text>
  <text style="stroke:none;fill:black;font-family:sans-serif;font-size:13;text-anchor:middle;" transform="matrix(1 0 0 1 1153.13 322)">Light</text>
  <text style="stroke:none;fill:black;font-family:sans-serif;font-size:13;text-anchor:middle;" transform="matrix(1 0 0 1 1449.84 322)">Regular</text>
  <text style="stroke:none;fill:black;font-family:sans-serif;font-size:13;text-anchor:middle;" transform="matrix(1 0 0 1 1746.56 322)">Medium</text>
  <text style="stroke:none;fill:black;font-family:sans-serif;font-size:13;text-anchor:middle;" transform="matrix(1 0 0 1 2043.27 322)">Semibold</text>
  <text style="stroke:none;fill:black;font-family:sans-serif;font-size:13;text-anchor:middle;" transform="matrix(1 0 0 1 2339.98 322)">Bold</text>
  <text style="stroke:none;fill:black;font-family:sans-serif;font-size:13;text-anchor:middle;" transform="matrix(1 0 0 1 2636.69 322)">Heavy</text>
  <text style="stroke:none;fill:black;font-family:sans-serif;font-size:13;text-anchor:middle;" transform="matrix(1 0 0 1 2933.4 322)">Black</text>
  <line style="fill:none;stroke:black;opacity:1;stroke-width:0.5;" x1="263" x2="3036" y1="1903" y2="1903"/>
  <g transform="matrix(0.2 0 0 0.2 263 1933)">
   <path d="m46.2402 4.15039c21.7773 0 39.4531-17.627 39.4531-39.4043s-17.6758-39.4043-39.4531-39.4043c-21.7285 0-39.4043 17.627-39.4043 39.4043s17.6758 39.4043 39.4043 39.4043Zm0-7.42188c-17.6758 0-31.9336-14.3066-31.9336-31.9824s14.2578-31.9824 31.9336-31.9824 31.9824 14.3066 31.9824 31.9824-14.3066 31.9824-31.9824 31.9824Zm3.61328-17.7734v-28.4668c0-2.24609-1.46484-3.75977-3.71094-3.75977-2.14844 0-3.61328 1.51367-3.61328 3.75977v28.4668c0 2.19727 1.46484 3.71094 3.61328 3.71094 2.24609 0 3.71094-1.51367 3.71094-3.71094Zm-17.8223-10.5957h28.418c2.19727 0 3.71094-1.46484 3.71094-3.61328 0-2.19727-1.51367-3.71094-3.71094-3.71094h-28.418c-2.24609 0-3.75977 1.51367-3.75977 3.71094 0 2.14844 1.51367 3.61328 3.75977 3.61328Z"/>
  </g>
  <g transform="matrix(0.2 0 0 0.2 281.506 1933)">
   <path d="m58.5449 14.5508c27.4902 0 49.8047-22.3145 49.8047-49.8047s-22.3145-49.8047-49.8047-49.8047-49.8047 22.3145-49.8047 49.8047 22.3145 49.8047 49.8047 49.8047Zm0-8.30078c-22.9492 0-41.5039-18.5547-41.5039-41.5039s18.5547-41.5039 41.5039-41.5039 41.5039 18.5547 41.5039 41.5039-18.5547 41.5039-41.5039 41.5039Zm4.05273-23.0957v-36.9141c0-2.49023-1.70898-4.19922-4.15039-4.19922-2.39258 0-4.05273 1.70898-4.05273 4.19922v36.9141c0 2.44141 1.66016 4.15039 4.05273 4.15039 2.44141 0 4.15039-1.66016 4.15039-4.15039Zm-22.5586-14.4043h36.9629c2.44141 0 4.15039-1.61133 4.15039-4.00391 0-2.44141-1.70898-4.15039-4.15039-4.15039h-36.9629c-2.49023 0-4.15039 1.70898-4.15039 4.15039 0 2.39258 1.66016 4.00391 4.15039 4.00391Z"/>
  </g>
  <g transform="matrix(0.2 0 0 0.2 304.924 1933)">
   <path d="m74.8535 28.3203c35.1074 0 63.623-28.4668 63.623-63.5742s-28.5156-63.623-63.623-63.623-63.5742 28.5156-63.5742 63.623 28.4668 63.5742 63.5742 63.5742Zm0-9.08203c-30.127 0-54.4922-24.3652-54.4922-54.4922s24.3652-54.4922 54.4922-54.4922 54.4922 24.3652 54.4922 54.4922-24.3652 54.4922-54.4922 54.4922Zm4.44336-30.3223v-48.4863c0-2.73438-1.85547-4.63867-4.54102-4.63867-2.58789 0-4.44336 1.9043-4.44336 4.63867v48.4863c0 2.68555 1.85547 4.58984 4.44336 4.58984 2.68555 0 4.54102-1.85547 4.54102-4.58984Zm-28.7109-19.7754h48.4863c2.68555 0 4.58984-1.80664 4.58984-4.39453 0-2.73438-1.85547-4.58984-4.58984-4.58984h-48.4863c-2.73438 0-4.58984 1.85547-4.58984 4.58984 0 2.58789 1.85547 4.39453 4.58984 4.39453Z"/>
  </g>
  <text style="stroke:none;fill:black;font-family:sans-serif;font-size:13;font-weight:bold;" transform="matrix(1 0 0 1 263 1953)">Design Variations</text>
  <text style="stroke:none;fill:black;font-family:sans-serif;font-size:13;" transform="matrix(1 0 0 1 263 1971)">Symbols are supported in up to nine weights and three scales.</text>
  <text style="stroke:none;fill:black;font-family:sans-serif;font-size:13;" transform="matrix(1 0 0 1 263 1989)">For optimal layout with text and other symbols, vertically align</text>
  <text style="stroke:none;fill:black;font-family:sans-serif;font-size:13;" transform="matrix(1 0 0 1 263 2007)">symbols with the adjacent text.</text>
  <line style="fill:none;stroke:#00AEEF;stroke-width:0.5;opacity:1.0;" x1="776" x2="776" y1="1919" y2="1933"/>
  <g transform="matrix(0.2 0 0 0.2 776 1933)">
   <path d="m16.5527 0.78125c2.58789 0 3.85742-0.976562 4.78516-3.71094l20.5566-57.5195h0.244141l20.6055 57.5195c0.927734 2.73438 2.19727 3.71094 4.73633 3.71094 2.58789 0 4.24805-1.5625 4.24805-4.00391 0-0.830078-0.146484-1.61133-0.537109-2.63672l-22.9004-60.9863c-1.12305-2.97852-3.125-4.49219-6.25-4.49219-3.02734 0-5.07812 1.46484-6.15234 4.44336l-22.9004 61.084c-0.390625 1.02539-0.537109 1.80664-0.537109 2.63672 0 2.44141 1.5625 3.95508 4.10156 3.95508Zm10.2051-20.9473h30.6641c2.00195 0 3.66211-1.66016 3.66211-3.66211 0-2.05078-1.66016-3.66211-3.66211-3.66211h-30.6641c-2.00195 0-3.66211 1.61133-3.66211 3.66211 0 2.00195 1.66016 3.66211 3.66211 3.66211Z"/>
  </g>
  <line style="fill:none;stroke:#00AEEF;stroke-width:0.5;opacity:1.0;" x1="792.836" x2="792.836" y1="1919" y2="1933"/>
  <text style="stroke:none;fill:black;font-family:sans-serif;font-size:13;font-weight:bold;" transform="matrix(1 0 0 1 776 1953)">Margins</text>
  <text style="stroke:none;fill:black;font-family:sans-serif;font-size:13;" transform="matrix(1 0 0 1 776 1971)">Leading and trailing margins on the left and right side of each symbol</text>
  <text style="stroke:none;fill:black;font-family:sans-serif;font-size:13;" transform="matrix(1 0 0 1 776 1989)">can be adjusted by modifying the x-location of the margin guidelines.</text>
  <text style="stroke:none;fill:black;font-family:sans-serif;font-size:13;" transform="matrix(1 0 0 1 776 2007)">Modifications are automatically applied proportionally to all</text>
  <text style="stroke:none;fill:black;font-family:sans-serif;font-size:13;" transform="matrix(1 0 0 1 776 2025)">scales and weights.</text>
  <g transform="matrix(0.2 0 0 0.2 1289 1933)">
   <path d="m14.209 13.1348 7.86133 7.86133c4.29688 4.39453 9.32617 4.10156 13.8672-1.02539l60.6934-68.2129-4.88281-4.88281-60.2539 67.6758c-1.80664 1.95312-3.4668 2.44141-5.81055 0.0976562l-5.17578-5.12695c-2.29492-2.29492-1.80664-3.95508 0.195312-5.81055l67.4805-62.1582-4.88281-4.83398-68.0664 62.5977c-4.98047 4.58984-5.32227 9.47266-1.02539 13.8184Zm44.873-97.4609c-2.05078 2.00195-2.24609 4.88281-1.07422 6.78711 1.12305 1.80664 3.4668 3.02734 6.5918 2.24609 5.85938-1.66016 12.5977-2.39258 18.8965 0.927734l-2.68555 7.12891c-1.61133 4.00391-0.732422 6.88477 1.70898 9.42383l10.2539 10.3027c2.34375 2.39258 4.54102 2.44141 7.08008 1.95312l4.44336-0.732422 2.58789 2.53906-0.195312 2.24609c-0.0976562 2.29492 0.537109 4.29688 2.7832 6.49414l3.36914 3.32031c2.29492 2.29492 5.51758 2.49023 7.8125 0.195312l12.9883-13.0371c2.29492-2.34375 2.14844-5.37109-0.195312-7.66602l-3.41797-3.41797c-2.19727-2.19727-4.05273-3.02734-6.34766-2.88086l-2.34375 0.244141-2.44141-2.44141 1.02539-4.6875c0.634766-2.73438-0.244141-4.98047-2.88086-7.61719l-11.2793-11.1816c-12.9395-12.8418-35.5957-11.0352-46.6797-0.146484Zm7.08008 2.05078c8.78906-6.39648 25.9766-5.66406 33.6914 1.95312l12.3047 12.207c1.02539 1.02539 1.2207 1.80664 0.927734 3.32031l-1.46484 6.64062 6.73828 6.68945 4.39453-0.244141c1.12305-0.0488281 1.51367 0.0488281 2.34375 0.878906l2.53906 2.49023-10.8398 10.8398-2.49023-2.49023c-0.830078-0.878906-0.976562-1.2207-0.927734-2.39258l0.292969-4.3457-6.68945-6.73828-6.83594 1.17188c-1.41602 0.292969-2.05078 0.195312-3.17383-0.878906l-8.93555-8.88672c-1.07422-1.02539-1.17188-1.70898-0.488281-3.36914l4.58984-11.4746c-6.10352-6.34766-17.041-7.51953-25.5859-4.58984-0.683594 0.244141-0.927734-0.390625-0.390625-0.78125Z"/>
  </g>
  <text style="stroke:none;fill:black;font-family:sans-serif;font-size:13;font-weight:bold;" transform="matrix(1 0 0 1 1289 1953)">Exporting</text>
  <text style="stroke:none;fill:black;font-family:sans-serif;font-size:13;" transform="matrix(1 0 0 1 1289 1971)">Symbols should be outlined when exporting to ensure the</text>
  <text style="stroke:none;fill:black;font-family:sans-serif;font-size:13;" transform="matrix(1 0 0 1 1289 1989)">design is preserved when submitting to Xcode.</text>
  <text id="template-version" style="stroke:none;fill:black;font-family:sans-serif;font-size:13;text-anchor:end;" transform="matrix(1 0 0 1 3036 1933)">Template v.7.0</text>
  <text style="stroke:none;fill:black;font-family:sans-serif;font-size:13;text-anchor:end;" transform="matrix(1 0 0 1 3036 1951)">Requires Xcode 17 or greater</text>
  <text id="descriptive-name" style="stroke:none;fill:black;font-family:sans-serif;font-size:13;text-anchor:end;" transform="matrix(1 0 0 1 3036 1969)">Generated from tomato.fill.2</text>
  <text style="stroke:none;fill:black;font-family:sans-serif;font-size:13;text-anchor:end;" transform="matrix(1 0 0 1 3036 1987)">Typeset at 100.0 points</text>
  <text style="stroke:none;fill:black;font-family:sans-serif;font-size:13;" transform="matrix(1 0 0 1 263 726)">Small</text>
  <text style="stroke:none;fill:black;font-family:sans-serif;font-size:13;" transform="matrix(1 0 0 1 263 1156)">Medium</text>
  <text style="stroke:none;fill:black;font-family:sans-serif;font-size:13;" transform="matrix(1 0 0 1 263 1586)">Large</text>
 </g>
 <g id="Guides">
  <g id="H-reference" style="fill:#27AAE1;stroke:none;" transform="matrix(1 0 0 1 339 696)">
   <path d="M0.993654 0L3.63775 0L29.3281-67.1323L30.0303-67.1323L30.0303-70.459L28.1226-70.459ZM11.6885-24.4799L46.9815-24.4799L46.2315-26.7285L12.4385-26.7285ZM55.1196 0L57.7637 0L30.6382-70.459L29.4326-70.459L29.4326-67.1323Z"/>
  </g>
  <line id="Baseline-S" style="fill:none;stroke:#27AAE1;opacity:1;stroke-width:0.5;" x1="263" x2="3036" y1="696" y2="696"/>
  <line id="Capline-S" style="fill:none;stroke:#27AAE1;opacity:1;stroke-width:0.5;" x1="263" x2="3036" y1="625.541" y2="625.541"/>
  <g id="H-reference" style="fill:#27AAE1;stroke:none;" transform="matrix(1 0 0 1 339 1126)">
   <path d="M0.993654 0L3.63775 0L29.3281-67.1323L30.0303-67.1323L30.0303-70.459L28.1226-70.459ZM11.6885-24.4799L46.9815-24.4799L46.2315-26.7285L12.4385-26.7285ZM55.1196 0L57.7637 0L30.6382-70.459L29.4326-70.459L29.4326-67.1323Z"/>
  </g>
  <line id="Baseline-M" style="fill:none;stroke:#27AAE1;opacity:1;stroke-width:0.5;" x1="263" x2="3036" y1="1126" y2="1126"/>
  <line id="Capline-M" style="fill:none;stroke:#27AAE1;opacity:1;stroke-width:0.5;" x1="263" x2="3036" y1="1055.54" y2="1055.54"/>
  <g id="H-reference" style="fill:#27AAE1;stroke:none;" transform="matrix(1 0 0 1 339 1556)">
   <path d="M0.993654 0L3.63775 0L29.3281-67.1323L30.0303-67.1323L30.0303-70.459L28.1226-70.459ZM11.6885-24.4799L46.9815-24.4799L46.2315-26.7285L12.4385-26.7285ZM55.1196 0L57.7637 0L30.6382-70.459L29.4326-70.459L29.4326-67.1323Z"/>
  </g>
  <line id="Baseline-L" style="fill:none;stroke:#27AAE1;opacity:1;stroke-width:0.5;" x1="263" x2="3036" y1="1556" y2="1556"/>
  <line id="Capline-L" style="fill:none;stroke:#27AAE1;opacity:1;stroke-width:0.5;" x1="263" x2="3036" y1="1485.54" y2="1485.54"/>
  <line id="right-margin-Black-S" style="fill:none;stroke:#FF3B30;stroke-width:0.5;opacity:1.0;" x1="2980.76" x2="2980.76" y1="600.785" y2="720.121"/>
  <line id="left-margin-Black-S" style="fill:none;stroke:#00AEEF;stroke-width:0.5;opacity:1.0;" x1="2886.04" x2="2886.04" y1="600.785" y2="720.121"/>
  <line id="right-margin-Regular-S" style="fill:none;stroke:#00AEEF;stroke-width:0.5;opacity:1.0;" x1="1497.21" x2="1497.21" y1="600.785" y2="720.121"/>
  <line id="left-margin-Regular-S" style="fill:none;stroke:#00AEEF;stroke-width:0.5;opacity:1.0;" x1="1402.48" x2="1402.48" y1="600.785" y2="720.121"/>
  <line id="right-margin-Ultralight-S" style="fill:none;stroke:#FF3B30;stroke-width:0.5;opacity:1.0;" x1="607.074" x2="607.074" y1="600.785" y2="720.121"/>
  <line id="left-margin-Ultralight-S" style="fill:none;stroke:#00AEEF;stroke-width:0.5;opacity:1.0;" x1="512.348" x2="512.348" y1="600.785" y2="720.121"/>
 </g>
 <g id="Symbols">
  <g id="Black-S" transform="matrix(1 0 0 1 2886.04 696)">
   <path class="monochrome-0 monochrome-1 multicolor-0:tintColor multicolor-1:systemRedColor hierarchical-0:primary hierarchical-1:secondary SFSymbolsPreviewWireframe" d="M13.06-58.1297C11.5398-57.3061 10.2662-56.3584 9.24749-55.2833C9.20586-55.2419 9.16423-55.2002 9.11446-55.1586C6.58719-52.9555 4.6168-50.4282 3.17037-47.6432C1.64901-44.7252 0.709517-41.5328 0.293794-38.1659C-0.77854-29.5116 1.12524-20.0343 5.34002-11.829C9.35553-4.0059 15.441 2.6449 23.0145 6.2695C27.7282 8.5307 33.024 10.0023 38.9679 10.5428C44.962 11.083 51.6211 10.6758 59.0202 9.1709C64.5152 8.0486 69.3705 6.3111 73.6186 4.0499C78.0497 1.6888 81.7989-1.2209 84.8998-4.563C89.4057-9.4262 92.5067-15.3287 93.8951-22.0376C95.2336-28.5057 94.9924-35.7384 92.9058-43.5446C92.3737-45.332 91.7419-46.9781 91.0352-48.4913C90.3203-49.9958 89.5304-51.351 88.6576-52.5647C85.9059-56.3891 82.3144-58.8663 77.9997-60.1551C76.8565-60.4925 75.6608-60.749 74.4147-60.9273C74.8706-60.5617 75.308-60.1736 75.7252-59.7643C78.1257-57.408 79.8578-54.3372 80.7379-50.3627C80.7919-50.1185 80.8219-49.8745 80.8295-49.6332L80.831-49.6332C80.8935-47.6989 80.6522-46.0689 80.1729-44.9485C79.7355-43.9257 79.08-43.1274 78.2143-42.5876C76.9272-41.7842 75.5327-41.6518 74.0612-42.2643C73.3156-42.5744 72.6099-43.0926 71.9688-43.8355C69.1905-46.0144 66.5892-47.7244 64.1426-48.8199C65.3687-47.7028 66.7054-46.6073 68.0669-45.4915C68.1491-45.4244 68.2277-45.3546 68.3028-45.2824L68.6027-45.0366C70.2913-43.648 70.5344-41.1531 69.1459-39.4645C68.3602-38.5091 67.2203-38.0166 66.0729-38.0205C61.6179-37.9654 57.3497-38.8044 53.2885-40.516C49.9732-41.9134 46.8236-43.8784 43.851-46.3986C41.2898-45.4784 38.6172-44.9315 36.0033-44.3968C31.8692-43.5513 27.9212-42.7437 26.4696-40.7228C26.4241-40.6593 26.3767-40.5979 26.328-40.538L26.3299-40.5363C22.8185-36.23 20.0285-36.2235 17.8088-39.5841C16.8922-40.9715 16.7731-43.2221 17.2336-46.0958C17.2658-46.2998 17.3133-46.4978 17.3745-46.6887C18.1601-49.5113 19.1873-51.9575 20.4672-54.0106C18.1237-54.613 16.2106-55.431 14.7222-56.2831C13.9839-56.7038 13.401-57.3514 13.06-58.1297ZM78.0765-6.1733C77.4987-5.4988 76.4789-5.4226 75.7997-6.0061C75.1252-6.5837 75.0488-7.6037 75.6325-8.2827C78.9481-12.145 81.2236-15.8473 82.6426-19.4112C84.0463-22.934 84.6172-26.337 84.5579-29.6544C84.5357-30.5449 85.2487-31.2781 86.1392-31.3005C87.0294-31.3227 87.7626-30.6096 87.785-29.7194C87.854-25.9888 87.2119-22.1668 85.6406-18.2251C84.0898-14.3187 81.6397-10.3161 78.0765-6.1733Z"/>
   <path class="monochrome-0 monochrome-2 multicolor-0:tintColor multicolor-2:systemGreenColor hierarchical-0:primary hierarchical-2:primary SFSymbolsPreviewWireframe" d="M47.0258-79.8667C48.5755-73.0453 50.0781-66.7301 51.3555-63.2648C55.171-63.4518 57.6472-64.4796 60.2324-65.4296C63.4174-66.5976 66.0882-68.1084 68.4166-69.8527C70.192-71.0131 71.1888-70.4834 71.0486-67.4777C70.5113-64.6821 69.0706-62.5408 66.8747-60.9366C66.9902-60.9412 67.1052-60.9451 67.2199-60.949C66.7981-60.9142 66.3724-60.8738 65.943-60.827C71.4512-59.2065 75.4682-55.8533 76.8732-49.5091C76.9766-46.3109 76.1172-44.8384 74.7727-46.6745C67.7128-52.2774 61.469-55.2585 55.4526-53.7414C57.4781-48.9056 61.7092-45.5737 66.0882-41.979C58.2096-41.8667 51.013-44.9318 44.643-51.0175C37.5315-47.5265 27.1702-48.4832 23.2568-43.0353C20.9725-40.2338 20.5329-41.6562 21.1449-45.4749C22.8086-51.5607 25.6446-55.4913 29.7906-57.0343C23.6957-56.8028 19.3588-58.2024 16.6933-59.7288C19.8001-60.8944 23.6111-61.0274 27.9166-61.4971L21.5545-64.0825C20.4254-64.8144 20.9238-65.2505 22.7458-65.4374C30.9145-65.7489 38.0786-65.3674 43.4595-63.7399C43.3736-68.2953 41.4503-72.8506 39.2155-77.406L45.0711-81.2295L47.0258-79.8667Z"/>
  </g>
  <g id="Regular-S" transform="matrix(1 0 0 1 1402.48 696)">
   <path class="monochrome-0 monochrome-1 multicolor-0:tintColor multicolor-1:systemRedColor hierarchical-0:primary hierarchical-1:secondary SFSymbolsPreviewWireframe" d="M13.06-58.1297C11.5398-57.3061 10.2662-56.3584 9.24749-55.2833C9.20586-55.2419 9.16423-55.2002 9.11446-55.1586C6.58719-52.9555 4.6168-50.4282 3.17037-47.6432C1.64901-44.7252 0.709517-41.5328 0.293794-38.1659C-0.77854-29.5116 1.12524-20.0343 5.34002-11.829C9.35553-4.0059 15.441 2.6449 23.0145 6.2695C27.7282 8.5307 33.024 10.0023 38.9679 10.5428C44.962 11.083 51.6211 10.6758 59.0202 9.1709C64.5152 8.0486 69.3705 6.3111 73.6186 4.0499C78.0497 1.6888 81.7989-1.2209 84.8998-4.563C89.4057-9.4262 92.5067-15.3287 93.8951-22.0376C95.2336-28.5057 94.9924-35.7384 92.9058-43.5446C92.3737-45.332 91.7419-46.9781 91.0352-48.4913C90.3203-49.9958 89.5304-51.351 88.6576-52.5647C85.9059-56.3891 82.3144-58.8663 77.9997-60.1551C76.8565-60.4925 75.6608-60.749 74.4147-60.9273C74.8706-60.5617 75.308-60.1736 75.7252-59.7643C78.1257-57.408 79.8578-54.3372 80.7379-50.3627C80.7919-50.1185 80.8219-49.8745 80.8295-49.6332L80.831-49.6332C80.8935-47.6989 80.6522-46.0689 80.1729-44.9485C79.7355-43.9257 79.08-43.1274 78.2143-42.5876C76.9272-41.7842 75.5327-41.6518 74.0612-42.2643C73.3156-42.5744 72.6099-43.0926 71.9688-43.8355C69.1905-46.0144 66.5892-47.7244 64.1426-48.8199C65.3687-47.7028 66.7054-46.6073 68.0669-45.4915C68.1491-45.4244 68.2277-45.3546 68.3028-45.2824L68.6027-45.0366C70.2913-43.648 70.5344-41.1531 69.1459-39.4645C68.3602-38.5091 67.2203-38.0166 66.0729-38.0205C61.6179-37.9654 57.3497-38.8044 53.2885-40.516C49.9732-41.9134 46.8236-43.8784 43.851-46.3986C41.2898-45.4784 38.6172-44.9315 36.0033-44.3968C31.8692-43.5513 27.9212-42.7437 26.4696-40.7228C26.4241-40.6593 26.3767-40.5979 26.328-40.538L26.3299-40.5363C22.8185-36.23 20.0285-36.2235 17.8088-39.5841C16.8922-40.9715 16.7731-43.2221 17.2336-46.0958C17.2658-46.2998 17.3133-46.4978 17.3745-46.6887C18.1601-49.5113 19.1873-51.9575 20.4672-54.0106C18.1237-54.613 16.2106-55.431 14.7222-56.2831C13.9839-56.7038 13.401-57.3514 13.06-58.1297ZM78.0765-6.1733C77.4987-5.4988 76.4789-5.4226 75.7997-6.0061C75.1252-6.5837 75.0488-7.6037 75.6325-8.2827C78.9481-12.145 81.2236-15.8473 82.6426-19.4112C84.0463-22.934 84.6172-26.337 84.5579-29.6544C84.5357-30.5449 85.2487-31.2781 86.1392-31.3005C87.0294-31.3227 87.7626-30.6096 87.785-29.7194C87.854-25.9888 87.2119-22.1668 85.6406-18.2251C84.0898-14.3187 81.6397-10.3161 78.0765-6.1733Z"/>
   <path class="monochrome-0 monochrome-2 multicolor-0:tintColor multicolor-2:systemGreenColor hierarchical-0:primary hierarchical-2:primary SFSymbolsPreviewWireframe" d="M47.0258-79.8667C48.5755-73.0453 50.0781-66.7301 51.3555-63.2648C55.171-63.4518 57.6472-64.4796 60.2324-65.4296C63.4174-66.5976 66.0882-68.1084 68.4166-69.8527C70.192-71.0131 71.1888-70.4834 71.0486-67.4777C70.5113-64.6821 69.0706-62.5408 66.8747-60.9366C66.9902-60.9412 67.1052-60.9451 67.2199-60.949C66.7981-60.9142 66.3724-60.8738 65.943-60.827C71.4512-59.2065 75.4682-55.8533 76.8732-49.5091C76.9766-46.3109 76.1172-44.8384 74.7727-46.6745C67.7128-52.2774 61.469-55.2585 55.4526-53.7414C57.4781-48.9056 61.7092-45.5737 66.0882-41.979C58.2096-41.8667 51.013-44.9318 44.643-51.0175C37.5315-47.5265 27.1702-48.4832 23.2568-43.0353C20.9725-40.2338 20.5329-41.6562 21.1449-45.4749C22.8086-51.5607 25.6446-55.4913 29.7906-57.0343C23.6957-56.8028 19.3588-58.2024 16.6933-59.7288C19.8001-60.8944 23.6111-61.0274 27.9166-61.4971L21.5545-64.0825C20.4254-64.8144 20.9238-65.2505 22.7458-65.4374C30.9145-65.7489 38.0786-65.3674 43.4595-63.7399C43.3736-68.2953 41.4503-72.8506 39.2155-77.406L45.0711-81.2295L47.0258-79.8667Z"/>
  </g>
  <g id="Ultralight-S" transform="matrix(1 0 0 1 512.348 696)">
   <path class="monochrome-0 monochrome-1 multicolor-0:tintColor multicolor-1:systemRedColor hierarchical-0:primary hierarchical-1:secondary SFSymbolsPreviewWireframe" d="M13.06-58.1297C11.5398-57.3061 10.2662-56.3584 9.24749-55.2833C9.20586-55.2419 9.16423-55.2002 9.11446-55.1586C6.58719-52.9555 4.6168-50.4282 3.17037-47.6432C1.64901-44.7252 0.709517-41.5328 0.293794-38.1659C-0.77854-29.5116 1.12524-20.0343 5.34002-11.829C9.35553-4.0059 15.441 2.6449 23.0145 6.2695C27.7282 8.5307 33.024 10.0023 38.9679 10.5428C44.962 11.083 51.6211 10.6758 59.0202 9.1709C64.5152 8.0486 69.3705 6.3111 73.6186 4.0499C78.0497 1.6888 81.7989-1.2209 84.8998-4.563C89.4057-9.4262 92.5067-15.3287 93.8951-22.0376C95.2336-28.5057 94.9924-35.7384 92.9058-43.5446C92.3737-45.332 91.7419-46.9781 91.0352-48.4913C90.3203-49.9958 89.5304-51.351 88.6576-52.5647C85.9059-56.3891 82.3144-58.8663 77.9997-60.1551C76.8565-60.4925 75.6608-60.749 74.4147-60.9273C74.8706-60.5617 75.308-60.1736 75.7252-59.7643C78.1257-57.408 79.8578-54.3372 80.7379-50.3627C80.7919-50.1185 80.8219-49.8745 80.8295-49.6332L80.831-49.6332C80.8935-47.6989 80.6522-46.0689 80.1729-44.9485C79.7355-43.9257 79.08-43.1274 78.2143-42.5876C76.9272-41.7842 75.5327-41.6518 74.0612-42.2643C73.3156-42.5744 72.6099-43.0926 71.9688-43.8355C69.1905-46.0144 66.5892-47.7244 64.1426-48.8199C65.3687-47.7028 66.7054-46.6073 68.0669-45.4915C68.1491-45.4244 68.2277-45.3546 68.3028-45.2824L68.6027-45.0366C70.2913-43.648 70.5344-41.1531 69.1459-39.4645C68.3602-38.5091 67.2203-38.0166 66.0729-38.0205C61.6179-37.9654 57.3497-38.8044 53.2885-40.516C49.9732-41.9134 46.8236-43.8784 43.851-46.3986C41.2898-45.4784 38.6172-44.9315 36.0033-44.3968C31.8692-43.5513 27.9212-42.7437 26.4696-40.7228C26.4241-40.6593 26.3767-40.5979 26.328-40.538L26.3299-40.5363C22.8185-36.23 20.0285-36.2235 17.8088-39.5841C16.8922-40.9715 16.7731-43.2221 17.2336-46.0958C17.2658-46.2998 17.3133-46.4978 17.3745-46.6887C18.1601-49.5113 19.1873-51.9575 20.4672-54.0106C18.1237-54.613 16.2106-55.431 14.7222-56.2831C13.9839-56.7038 13.401-57.3514 13.06-58.1297ZM78.0765-6.1733C77.4987-5.4988 76.4789-5.4226 75.7997-6.0061C75.1252-6.5837 75.0488-7.6037 75.6325-8.2827C78.9481-12.145 81.2236-15.8473 82.6426-19.4112C84.0463-22.934 84.6172-26.337 84.5579-29.6544C84.5357-30.5449 85.2487-31.2781 86.1392-31.3005C87.0294-31.3227 87.7626-30.6096 87.785-29.7194C87.854-25.9888 87.2119-22.1668 85.6406-18.2251C84.0898-14.3187 81.6397-10.3161 78.0765-6.1733Z"/>
   <path class="monochrome-0 monochrome-2 multicolor-0:tintColor multicolor-2:systemGreenColor hierarchical-0:primary hierarchical-2:primary SFSymbolsPreviewWireframe" d="M47.0258-79.8667C48.5755-73.0453 50.0781-66.7301 51.3555-63.2648C55.171-63.4518 57.6472-64.4796 60.2324-65.4296C63.4174-66.5976 66.0882-68.1084 68.4166-69.8527C70.192-71.0131 71.1888-70.4834 71.0486-67.4777C70.5113-64.6821 69.0706-62.5408 66.8747-60.9366C66.9902-60.9412 67.1052-60.9451 67.2199-60.949C66.7981-60.9142 66.3724-60.8738 65.943-60.827C71.4512-59.2065 75.4682-55.8533 76.8732-49.5091C76.9766-46.3109 76.1172-44.8384 74.7727-46.6745C67.7128-52.2774 61.469-55.2585 55.4526-53.7414C57.4781-48.9056 61.7092-45.5737 66.0882-41.979C58.2096-41.8667 51.013-44.9318 44.643-51.0175C37.5315-47.5265 27.1702-48.4832 23.2568-43.0353C20.9725-40.2338 20.5329-41.6562 21.1449-45.4749C22.8086-51.5607 25.6446-55.4913 29.7906-57.0343C23.6957-56.8028 19.3588-58.2024 16.6933-59.7288C19.8001-60.8944 23.6111-61.0274 27.9166-61.4971L21.5545-64.0825C20.4254-64.8144 20.9238-65.2505 22.7458-65.4374C30.9145-65.7489 38.0786-65.3674 43.4595-63.7399C43.3736-68.2953 41.4503-72.8506 39.2155-77.406L45.0711-81.2295L47.0258-79.8667Z"/>
  </g>
 </g>
</svg>
